<?xml version="1.0" encoding="UTF-8"?>
<svg id="Layer_1" data-name="Layer 1" xmlns="http://www.w3.org/2000/svg" xmlns:xlink="http://www.w3.org/1999/xlink" viewBox="0 0 362.11 47.76">
  <defs>
    <style>
      .cls-1 {
        fill: url(#linear-gradient);
      }

      .cls-1, .cls-2, .cls-3, .cls-4, .cls-5, .cls-6, .cls-7, .cls-8, .cls-9, .cls-10, .cls-11, .cls-12, .cls-13, .cls-14, .cls-15, .cls-16, .cls-17, .cls-18, .cls-19 {
        stroke-width: 0px;
      }

      .cls-2 {
        fill: url(#linear-gradient-11);
      }

      .cls-3 {
        fill: url(#linear-gradient-12);
      }

      .cls-4 {
        fill: url(#linear-gradient-13);
      }

      .cls-5 {
        fill: url(#linear-gradient-10);
      }

      .cls-6 {
        fill: url(#linear-gradient-4);
      }

      .cls-7 {
        fill: url(#linear-gradient-2);
      }

      .cls-8 {
        fill: url(#linear-gradient-3);
      }

      .cls-9 {
        fill: url(#linear-gradient-8);
      }

      .cls-10 {
        fill: url(#linear-gradient-9);
      }

      .cls-11 {
        fill: url(#linear-gradient-7);
      }

      .cls-12 {
        fill: url(#linear-gradient-5);
      }

      .cls-13 {
        fill: url(#linear-gradient-6);
      }

      .cls-14 {
        fill: #4c803c;
      }

      .cls-15 {
        fill: #4e3b8b;
      }

      .cls-16 {
        fill: #2b4721;
      }

      .cls-17 {
        fill: #539042;
      }

      .cls-18 {
        fill: #fff;
      }

      .cls-19 {
        fill: #fcb32a;
      }
    </style>
    <linearGradient id="linear-gradient" x1="5.82" y1="21.86" x2="5.82" y2="41.81" gradientUnits="userSpaceOnUse">
      <stop offset="0" stop-color="#fff" stop-opacity="0"/>
      <stop offset=".35" stop-color="#e4cca8" stop-opacity=".41"/>
      <stop offset=".66" stop-color="#cfa464" stop-opacity=".73"/>
      <stop offset=".88" stop-color="#c28c3a" stop-opacity=".93"/>
      <stop offset="1" stop-color="#be832b"/>
    </linearGradient>
    <linearGradient id="linear-gradient-2" x1="11.64" y1="21.42" x2="11.64" y2="37.49" xlink:href="#linear-gradient"/>
    <linearGradient id="linear-gradient-3" x1="11.64" y1="45.79" x2="11.64" y2="39.16" gradientUnits="userSpaceOnUse">
      <stop offset="0" stop-color="#fff" stop-opacity="0"/>
      <stop offset="1" stop-color="#be832b"/>
    </linearGradient>
    <linearGradient id="linear-gradient-4" x1="17.46" y1="22.94" x2="17.46" y2="33.17" xlink:href="#linear-gradient"/>
    <linearGradient id="linear-gradient-5" x1="17.46" y1="47.25" x2="17.46" y2="34.84" xlink:href="#linear-gradient-3"/>
    <linearGradient id="linear-gradient-6" x1="23.44" y1="24.02" x2="23.44" y2="35.48" xlink:href="#linear-gradient"/>
    <linearGradient id="linear-gradient-7" x1="23.44" y1="47.62" x2="23.44" y2="37.15" xlink:href="#linear-gradient-3"/>
    <linearGradient id="linear-gradient-8" x1="29.1" y1="23.35" x2="29.1" y2="37.4" xlink:href="#linear-gradient"/>
    <linearGradient id="linear-gradient-9" x1="29.1" y1="46.92" x2="29.1" y2="39.09" xlink:href="#linear-gradient-3"/>
    <linearGradient id="linear-gradient-10" x1="34.93" y1="21.9" x2="34.93" y2="33.7" xlink:href="#linear-gradient"/>
    <linearGradient id="linear-gradient-11" x1="34.93" y1="45.48" x2="34.93" y2="35.39" xlink:href="#linear-gradient-3"/>
    <linearGradient id="linear-gradient-12" x1="40.75" y1="21.71" x2="40.75" y2="30" xlink:href="#linear-gradient"/>
    <linearGradient id="linear-gradient-13" x1="40.74" y1="42.9" x2="40.74" y2="31.69" xlink:href="#linear-gradient-3"/>
  </defs>
  <g>
    <g>
      <path class="cls-17" d="m48.31,29.11c-.12-.56-.29-1.11-.49-1.66l-.35.23h0l-1.17.75-4.03,2.56-1.12.71-.8.51-1.11.71-2.79,1.77-1.11.71-.8.51-1.12.71-2.79,1.77-1.11.71-.8.5-1.11.71-.05.03-2.74-1.94-.95-.68-.8-.57-1.27-.91-2.79-1.98-.18-.12-.94.7-.8.59-1.11.83-2.75,2.04-.04.03-1.11.83-.8.59-1.11.83-2.55,1.89-.24.18-.08.06-.48.36s-.1-.07-.15-.11c-.23-.17-.46-.34-.68-.53l.27-.2.2-.15.5-.38.41-.3,2.79-2.07,1.11-.83.8-.59,1.11-.83.31-.23,2.48-1.84,1.11-.83.8-.59.94-.69.18.13,2.79,1.98,1.27.91.8.57.95.68,2.75,1.95.04-.02,1.11-.71.8-.5,1.11-.71,2.79-1.77,1.12-.71.8-.51,1.11-.71,2.79-1.78,1.11-.71.8-.51,1.12-.71,3.27-2.09,1.3-.83h.02s.19-.13.19-.13h0s.35-.23.35-.23c-.44-.94-1.02-1.81-1.72-2.55-1.19-1.26-2.75-2.07-4.44-2.44-1.96-.44-3.96-.31-5.92.07-.27.05-.53.11-.8.17-.07.01-.14.03-.21.04-1.31.3-2.6.68-3.9,1-.3.08-.61.15-.91.21-.27.06-.53.11-.8.16-.11.02-.21.04-.31.05h0c-.11.02-.23.04-.34.06-.34.05-.68.09-1.02.14-.21.02-.42.05-.63.09-.85.14-1.7.23-2.55.15-.27-.02-.53,0-.8,0-.26,0-.52-.02-.78-.04-.73-.05-1.45-.15-2.17-.29h0c-.56-.11-1.12-.24-1.67-.39-.19-.05-.38-.11-.56-.16-.27-.08-.53-.16-.8-.25-1.66-.53-3.3-1.13-5.02-1.4-.11-.02-.23-.04-.34-.05-.15-.02-.3-.04-.46-.05-1.71-.17-3.48-.05-5.11.52-.04,0-.08.03-.12.04-.2.07-.39.15-.58.23-1.58.7-2.92,1.84-3.82,3.33C.43,27.03-.1,29.27.02,31.51c.11,2.26.87,4.45,2.01,6.39,3.2,5.44,9.11,8.36,15.18,9.33,10.17,1.64,25.37-1.27,30.33-11.5.96-1.98,1.32-4.18.77-6.62ZM5.31,41.89c-.34-.3-.68-.63-1-.97v-6.82h1.11v7.71l-.11.08Z"/>
      <path class="cls-1" d="m6.22,21.86v19.36l-.44.32-.36.27v-19.64c.26-.11.53-.22.8-.31Z"/>
      <path class="cls-18" d="m7.34,42.65v.8c-.19-.13-.37-.26-.56-.39l.48-.36.08-.06Z"/>
      <path class="cls-7" d="m12.04,21.53v15.36l-.8.59v-16.07c.27.03.53.07.8.12Z"/>
      <path class="cls-8" d="m12.04,39.16v6.64c-.13-.05-.27-.1-.39-.15-.14-.05-.27-.11-.41-.15v-5.74l.8-.59Z"/>
      <polygon class="cls-18" points="13.16 38.33 13.16 41.96 10.13 41.96 10.13 40.58 11.24 39.75 12.04 39.16 13.16 38.33"/>
      <polygon class="cls-19" points="13.16 30.27 13.16 36.07 12.04 36.9 11.24 37.49 10.13 38.32 10.13 30.27 13.16 30.27"/>
      <path class="cls-6" d="m17.86,23.17v9.41l-.8.59v-10.24c.26.08.53.16.8.24Z"/>
      <path class="cls-12" d="m17.86,34.84v12.41s-.08-.01-.12-.02c-.23-.04-.46-.08-.68-.12v-11.68l.8-.59Z"/>
      <polygon class="cls-19" points="18.98 27.56 18.98 32.02 18.79 31.89 17.86 32.58 17.07 33.17 15.95 34 15.95 27.56 18.98 27.56"/>
      <polygon class="cls-18" points="18.98 34.26 18.98 39.25 15.95 39.25 15.95 36.26 17.06 35.43 17.86 34.84 18.8 34.14 18.98 34.26"/>
      <path class="cls-13" d="m23.84,24.02v11.46l-.8-.57v-10.89c.27,0,.53,0,.8,0Z"/>
      <path class="cls-11" d="m23.84,37.72v9.88c-.27.01-.53.02-.8.03v-10.47l.8.57Z"/>
      <polygon class="cls-18" points="24.8 38.4 24.8 40.84 21.77 40.84 21.77 36.24 23.04 37.15 23.84 37.72 24.8 38.4"/>
      <polygon class="cls-19" points="24.8 29.15 24.8 36.16 23.84 35.48 23.04 34.91 21.77 34.01 21.77 29.15 24.8 29.15"/>
      <path class="cls-9" d="m29.5,23.35v13.54l-.8.51v-13.88c.27-.05.53-.11.8-.17Z"/>
      <path class="cls-10" d="m29.5,39.09v7.65c-.27.06-.53.12-.8.17v-7.32l.8-.5Z"/>
      <polygon class="cls-18" points="30.62 38.38 30.62 44.99 27.59 44.99 27.59 40.31 28.7 39.6 29.5 39.09 30.62 38.38"/>
      <polygon class="cls-19" points="30.62 33.3 30.62 36.19 29.5 36.89 28.71 37.4 27.59 38.11 27.59 33.3 30.62 33.3"/>
      <path class="cls-5" d="m35.32,21.9v11.29l-.8.51v-11.63c.26-.06.53-.12.8-.17Z"/>
      <path class="cls-2" d="m35.32,35.39v9.83c-.27.09-.53.18-.8.26v-9.58l.8-.51Z"/>
      <polygon class="cls-18" points="36.44 34.68 36.44 42.12 33.41 42.12 33.41 36.61 34.53 35.9 35.32 35.39 36.44 34.68"/>
      <polygon class="cls-19" points="36.44 30.43 36.44 32.48 35.32 33.19 34.53 33.7 33.41 34.41 33.41 30.43 36.44 30.43"/>
      <path class="cls-3" d="m41.14,21.86v7.61l-.8.53v-8.3c.27.04.53.09.8.15Z"/>
      <path class="cls-4" d="m41.14,31.69v10.71c-.26.17-.53.34-.8.5v-10.7l.8-.51Z"/>
      <polygon class="cls-18" points="42.26 30.99 42.26 36.86 39.23 36.86 39.23 32.91 40.34 32.2 41.14 31.69 42.26 30.99"/>
      <polygon class="cls-19" points="42.26 25.17 42.26 28.78 41.14 29.49 40.35 30 39.23 30.71 39.23 25.17 42.26 25.17"/>
      <path class="cls-14" d="m5.49,39.34l-.07.08v-.23s.04.1.07.15Z"/>
      <path class="cls-14" d="m47.05,26.72l-.19.11c-.05-.04-.11-.1-.19-.17-1.05-1.12-2.38-1.93-3.85-2.37-.55-.17-1.1-.28-1.67-.36-.27-.03-.53-.06-.8-.08-.75-.04-1.5-.02-2.25.05-.94.09-1.86.25-2.77.45-.27.06-.53.12-.8.19-1.68.4-3.34.89-5.02,1.24-.27.06-.53.11-.8.15-.1.02-.19.04-.29.05-.68.11-1.37.17-2.05.18h-.03c-.83.02-1.66-.03-2.49-.1-.27-.03-.53-.05-.8-.08-1.18-.12-2.36-.29-3.54-.4-.13-.01-.25-.02-.38-.03h0c-.35-.03-.71-.06-1.06-.07-.07,0-.13,0-.19,0-.12,0-.24,0-.35,0-.15-.03-.3-.06-.45-.08-.7-.12-1.41-.21-2.12-.26-.96-.07-1.94-.06-2.9.05-.27.03-.53.07-.8.12-1.69.31-3.29.98-4.61,2.15-.14.13-.28.26-.41.39-.3.32-.57.66-.8,1.02-1.14,1.79-1.39,4.03-1.11,6.16v5.05c-2.75-3.11-4.55-7.49-3.65-11.65.45-2.05,1.5-4.05,3.19-5.34.49-.37,1.02-.68,1.57-.93.26-.11.53-.22.8-.31.93-.31,1.9-.47,2.87-.53.73-.04,1.45,0,2.15.08.27.03.53.07.8.11.99.18,1.97.44,2.95.75.69.22,1.38.44,2.07.65.27.08.53.16.8.24.52.15,1.04.28,1.57.4.38.08.76.16,1.14.22h0c.57.1,1.14.16,1.73.19.24.01.49.02.72.03.26,0,.51,0,.77,0h.03c.66,0,1.32-.04,1.99-.1,0,0,0,0,0,0,.34-.03.68-.06,1.01-.11.37-.04.73-.1,1.09-.16h0s.09-.01.13-.02c.21-.04.42-.08.63-.11.06-.01.11-.02.17-.04,0,0,0,0,0,0,.21-.04.42-.09.62-.13.12-.03.24-.05.36-.08,1.56-.37,3.1-.84,4.67-1.2.26-.06.53-.11.8-.16.73-.15,1.46-.26,2.21-.3.93-.07,1.88-.04,2.81.11.27.04.53.09.8.15.7.16,1.38.4,2.02.72,1.56.78,2.78,2.06,3.61,3.59.14.25.21.39.27.54Z"/>
      <path class="cls-16" d="m20.02,25.97s.03,0,.05,0c.24.1.5.18.75.24,1.02.26,2.03.32,3.07.26,1.35-.08,2.78-.2,4.02-.79.48-.22,1-.56,1.19-1.13.22-.67-.17-1.23-.78-1.37-.95-.23-1.98.28-2.91.4-1.24.16-2.44-.06-3.66-.27-.9-.15-2.11-.19-2.73.69-.62.89.04,1.96,1,1.98Z"/>
      <path class="cls-14" d="m20.43,26.11c.05.01.11.02.16.03.73.16,1.46.29,2.2.32.36.01.73.01,1.09,0,.03,0,.07,0,.1,0,1.24-.08,2.56-.19,3.71-.69.44-.19.93-.48,1.1-.96.21-.57-.15-1.03-.71-1.15-.88-.19-1.82.25-2.68.36-1.14.14-2.24-.04-3.37-.2-.83-.12-1.95-.15-2.52.6-.26.34-.31.79-.07,1.15.11.17.27.31.45.39.16.08.34.12.52.16Z"/>
      <path class="cls-16" d="m25.6,25.23c.05.06.12.1.2.12.24.09.51.13.77.1.21-.02.41-.08.59-.17.32-.06.63-.2.89-.41.13-.1.27-.33.19-.5-.21-.51-.81-.49-1.27-.4-.23.05-.45.13-.67.22-.18.08-.37.19-.52.32-.14.13-.26.3-.26.5,0,.08.03.16.08.22Z"/>
      <path class="cls-19" d="m7.34,34.1v6.29l-.89.66-.23.17-.44.32-.36.27-.11.08c-.34-.3-.68-.63-1-.97v-6.82h3.03Z"/>
      <path class="cls-18" d="m47.82,27.45l-.35.23h0l-1.17.75-4.03,2.56-1.12.71-.8.51-1.11.71-2.79,1.77-1.11.71-.8.51-1.12.71-2.79,1.77-1.11.71-.8.5-1.11.71-.05.03-2.74-1.94-.95-.68-.8-.57-1.27-.91-2.79-1.98-.18-.12-.94.7-.8.59-1.11.83-2.75,2.04-.04.03-1.11.83-.8.59-1.11.83-2.55,1.89-.24.18-.08.06-.48.36s-.1-.07-.15-.11c-.23-.17-.46-.34-.68-.53l.27-.2.2-.15.5-.38.41-.3,2.79-2.07,1.11-.83.8-.59,1.11-.83.31-.23,2.48-1.84,1.11-.83.8-.59.94-.69.18.13,2.79,1.98,1.27.91.8.57.95.68,2.75,1.95.04-.02,1.11-.71.8-.5,1.11-.71,2.79-1.77,1.12-.71.8-.51,1.11-.71,2.79-1.78,1.11-.71.8-.51,1.12-.71,3.27-2.09,1.3-.83h.02s.19-.13.19-.13h0s.35-.23.35-.23c.15.31.29.64.41.97Z"/>
      <g>
        <g>
          <path class="cls-17" d="m28.58,18.74c0,.08,0,.16,0,.23,0,.07,0,.14,0,.21,0,.18-.01.36-.02.55-.09,1.76-.42,3.45-.96,5.04l-1.16-.06c.8-1.58,1.28-3.35,1.38-5.24.03-.69.01-1.38-.05-2.04-.16-1.59-.61-3.11-1.3-4.49-1.55-3.13-4.32-5.57-7.71-6.67-.01-.01-.03-.02-.03-.03,0,0,.01.01.02.02,2.35,2.39,3.98,5.47,4.56,8.89C13.64,16.3,6.12,12.63,1.78,1.81,4.5.52,7.57-.14,10.78.03c6.91.36,12.76,4.41,15.72,10.14.22.42.42.85.6,1.28.22.51.41,1.03.58,1.55.16.5.3,1,.42,1.52.09.38.17.77.23,1.15h0c.1.62.18,1.24.22,1.88.03.39.04.79.04,1.19Z"/>
          <path class="cls-15" d="m23.3,15.14c-.9.28-1.82.49-2.77.62-.02,0-.05,0-.07,0-1,.13-2.02.17-3.06.12-1.71-.09-3.35-.43-4.88-.99-.1-.04-.2-.07-.29-.11-1.39-.54-2.69-1.26-3.87-2.13-1.11-.82-2.12-1.78-2.99-2.85-.14-.17-.27-.33-.4-.51-.96-1.26-1.73-2.65-2.3-4.15-.09-.24-.18-.48-.26-.73-.02-.07-.04-.14-.06-.21-.04-.12-.08-.24-.11-.37-.04-.13-.07-.26-.11-.4-.12-.46-.22-.93-.3-1.41,0-.04-.01-.08-.02-.12,0-.04-.01-.08-.02-.12,4.34,10.81,11.86,14.48,21.53,13.33Z"/>
          <path class="cls-14" d="m23.3,15.14c-.93.28-1.85.49-2.77.62-.02,0-.05,0-.07,0-2.7.38-5.35.11-7.94-.87-.1-.04-.2-.07-.29-.11-1.31-.52-2.6-1.23-3.87-2.13-1.14-.88-2.14-1.82-2.99-2.85-.14-.17-.27-.33-.4-.51-1.13-1.46-1.98-3.08-2.56-4.88-.02-.07-.04-.14-.06-.21-.04-.12-.08-.24-.11-.37-.04-.13-.07-.26-.11-.4-.13-.5-.24-1-.32-1.52,0-.04-.01-.08-.02-.12,4.34,10.81,11.86,14.48,21.53,13.33Z"/>
        </g>
        <g>
          <path class="cls-17" d="m45.2,7.86s-.02.06-.03.08c0,.02-.01.04-.02.06-.01.03-.02.07-.04.1-.11.32-.23.62-.37.92-.05.11-.1.22-.15.32-.03.07-.07.13-.1.2-.04.07-.08.14-.11.21-.5.89-1.13,1.69-1.87,2.39-.04.04-.09.08-.13.12-.61.55-1.29,1.03-2.01,1.42-.74.39-1.53.69-2.35.89-.06.01-.13.03-.19.04-.98.21-2.02.28-3.07.18-.6-.06-1.19-.17-1.75-.33-.1-.03-.21-.06-.31-.1-.47-.15-.92-.33-1.35-.54.64-1.97,1.88-3.64,3.47-4.84,0,0,0,0,.01-.01,0,0-.01,0-.02.01-2.1.35-3.94,1.55-5.13,3.26-.53.75-.93,1.61-1.16,2.54-.07.29-.13.59-.17.89-.06-.39-.14-.77-.23-1.15.2-.82.48-1.6.85-2.34.15-.3.31-.59.48-.87.15-.24.3-.47.47-.7,2.25-3.12,6.05-5,10.15-4.6,1.91.19,3.66.84,5.15,1.84Z"/>
          <path class="cls-14" d="m45.2,7.86c-.83,2.59-2.44,4.49-4.83,5.82-3.11,1.57-6.12,1.52-9.03.15,5.59,1.53,10.35.03,13.86-5.97Z"/>
        </g>
      </g>
    </g>
    <path class="cls-19" d="m52.28,24.23l-2.76,5.12c-.03-.3-.09-.61-.16-.93-.11-.47-.24-.94-.41-1.4-.1-.28-.22-.55-.35-.81-.37-.79-.86-1.52-1.45-2.15-.08-.08-.15-.16-.23-.23l5.36.39Z"/>
  </g>
  <g>
    <g>
      <g>
        <polygon class="cls-18" points="68.49 27.74 68.49 47 63.17 47 63.17 22.52 64.17 23.5 67.49 26.76 68.49 27.74"/>
        <polygon class="cls-18" points="68.49 17.32 68.49 25.07 63.17 19.86 63.17 17.32 68.49 17.32"/>
      </g>
      <polygon class="cls-18" points="98.51 17.59 98.51 47.27 95.67 47.27 76.76 25.82 76.76 47.27 73.1 47.27 73.1 17.59 77.36 17.59 94.85 37.27 94.85 17.59 98.51 17.59"/>
      <polygon class="cls-18" points="131.14 17.59 118.71 47.27 115.13 47.27 102.67 17.59 108.35 17.59 117.96 39.91 127.31 17.59 131.14 17.59"/>
      <polygon class="cls-18" points="157.78 43.61 157.78 47.27 135.3 47.27 135.3 17.59 157.22 17.59 157.22 21.25 140.62 21.25 140.62 30.6 155.56 30.6 155.56 34.26 140.62 34.26 140.62 43.61 157.78 43.61"/>
      <path class="cls-18" d="m184.76,38.41c0,1.69-.57,3.27-1.69,4.7-1.08,1.39-2.58,2.52-4.46,3.38-1.87.84-4.05,1.27-6.47,1.27-1.88,0-3.53-.24-4.92-.71-1.37-.47-2.55-1.06-3.49-1.74-.93-.66-1.69-1.34-2.26-2l-.63-.73,2.69-2.48.67.78c1.83,2.12,4.46,3.17,8.05,3.22,1.63,0,3.01-.23,4.07-.69,1.02-.44,1.79-1.01,2.28-1.69.48-.67.72-1.38.72-2.16,0-.85-.27-1.53-.83-2.07-.67-.64-1.55-1.2-2.63-1.66-1.15-.5-2.43-.98-3.79-1.43-3.08-1.01-5.29-1.98-6.76-2.97-2.32-1.52-3.5-3.6-3.5-6.18s1.14-4.51,3.39-6.06c2.13-1.47,4.87-2.21,8.16-2.21,1.54,0,2.99.24,4.32.73,1.3.47,2.43,1.05,3.38,1.7.94.65,1.67,1.28,2.18,1.86l.65.74-2.66,2.41-1.21-1.15c-.33-.33-.8-.69-1.41-1.09-.61-.39-1.37-.76-2.26-1.08-.85-.31-1.84-.46-2.92-.46-1.98,0-3.56.37-4.68,1.11-1.01.67-1.5,1.41-1.5,2.28s.28,1.62.85,2.18c.67.67,1.57,1.24,2.66,1.7,1.18.5,2.47.98,3.81,1.42,3.07,1,5.26,1.96,6.72,2.93,2.3,1.5,3.47,3.57,3.47,6.15Z"/>
      <polygon class="cls-18" points="212.95 17.59 212.95 21.25 202.99 21.25 202.99 47.27 197.67 47.27 197.67 21.25 187.71 21.25 187.71 17.59 212.95 17.59"/>
      <g>
        <path class="cls-19" d="m242.54,43.51c-.98,1.26-2.36,2.13-3.83,2.7-.82.31-1.66.54-2.52.71-.45.09-.91.16-1.37.21-.12.01-.42.01-.72.03h0c-.19.01-.37.02-.5.05-.02,0-.05.01-.07.01-.01,0-.02.01-.04,0-.35.04-.71.05-1.07.05h-14.77v-3.66h14.66c.41.04.83.03,1.23-.01,2.57-.3,4.72-2.27,4.71-5.3,0-3.48-3.6-5.3-5.9-5.3h-7.92s-6.78.01-6.78.01v-3.66h13.13c.96,0,1.83-.15,2.6-.46.7-.29,1.24-.71,1.65-1.3.39-.57.59-1.35.59-2.29s-.2-1.72-.59-2.29c-.41-.59-.95-1.01-1.65-1.3-.77-.31-1.64-.46-2.6-.46h-13.13v-3.66h13.13c1.84,0,3.55.28,5.08.84,1.59.58,2.89,1.44,3.85,2.57,1.01,1.18,1.52,2.63,1.52,4.3,0,1.56-.44,2.92-1.32,4.04-.45.58-.98,1.1-1.59,1.55.01,0,.01.01.02.02.04.02.09.05.13.08.02,0,.04,0,.05.02.06.02.11.03.13.04.22.09.44.18.66.26.39.14.77.29,1.13.49.33.2.66.43.96.67,3.28,2.64,3.7,7.78,1.15,11.04Z"/>
        <path class="cls-19" d="m233.53,43.6c-.4.04-.82.05-1.23.01h.11c.09,0,.18,0,.26-.01h.86Z"/>
        <path class="cls-19" d="m233.59,47.21c.13-.03.31-.04.5-.05-.16.02-.33.04-.5.05Z"/>
        <path class="cls-19" d="m238.46,30.99c-.07-.03-.14-.07-.15-.1.05.03.1.06.15.1Z"/>
      </g>
      <polygon class="cls-19" points="270.54 43.61 270.54 47.27 248.06 47.27 248.06 17.59 269.98 17.59 269.98 21.25 253.38 21.25 253.38 30.6 268.32 30.6 268.32 34.26 253.38 34.26 253.38 43.61 270.54 43.61"/>
      <path class="cls-19" d="m291.55,17.59h-3.54l-13.35,29.68h30.21l-13.32-29.68Zm-11.39,26.02l8.51-18.95,8.79,18.95h-17.3Z"/>
      <polygon class="cls-19" points="333.91 17.59 333.91 47.27 331.07 47.27 312.16 25.82 312.16 47.27 308.5 47.27 308.5 17.59 312.76 17.59 330.25 37.27 330.25 17.59 333.91 17.59"/>
      <path class="cls-19" d="m362.11,38.41c0,1.69-.57,3.27-1.69,4.7-1.08,1.39-2.58,2.52-4.46,3.38-1.87.84-4.05,1.27-6.47,1.27-1.88,0-3.53-.24-4.92-.71-1.37-.47-2.55-1.06-3.49-1.74-.93-.66-1.69-1.34-2.26-2l-.64-.73,2.7-2.48.67.78c1.83,2.12,4.46,3.17,8.05,3.22,1.63,0,3-.23,4.07-.69,1.02-.44,1.79-1.01,2.28-1.69.48-.67.72-1.38.72-2.16,0-.85-.28-1.53-.83-2.07-.67-.64-1.55-1.2-2.63-1.66-1.15-.5-2.43-.98-3.79-1.43-3.08-1.01-5.29-1.98-6.76-2.97-2.32-1.52-3.5-3.6-3.5-6.18s1.14-4.51,3.39-6.06c2.13-1.47,4.87-2.21,8.16-2.21,1.54,0,2.99.24,4.32.73,1.3.47,2.43,1.05,3.38,1.7.94.65,1.67,1.28,2.18,1.86l.65.74-2.66,2.41-1.21-1.15c-.33-.33-.8-.69-1.41-1.09-.61-.39-1.37-.76-2.26-1.08-.85-.31-1.84-.46-2.92-.46-1.98,0-3.56.37-4.68,1.11-1.01.67-1.5,1.41-1.5,2.28s.28,1.62.85,2.18c.67.67,1.57,1.24,2.66,1.7,1.18.5,2.47.98,3.81,1.42,3.07,1,5.26,1.96,6.72,2.93,2.3,1.5,3.47,3.57,3.47,6.15Z"/>
      <path class="cls-19" d="m233.48,47.22s.03,0,.04,0c-.04.02-.06.03-.08.05,0,0,0-.02.04-.05Z"/>
    </g>
    <rect class="cls-19" x="210.99" y="30.55" width="17" height="3.7" transform="translate(251.89 -187.08) rotate(90)"/>
  </g>
</svg>